<?xml version="1.0" encoding="UTF-8"?>
<svg xmlns="http://www.w3.org/2000/svg"
     viewBox="0 0 985 530"
     preserveAspectRatio="xMidYMid meet">

<style>
@font-face {
  src: local("Consolas"), local("Consolas Bold");
  font-family: "ConsolasFallback";
  font-display: swap;
}

text {
  font-family: ConsolasFallback, Consolas, monospace;
  font-size: 16px;
}

.key { fill: #ffa657; }
.value { fill: #a5d6ff; }
.cc { fill: #616e7f; }
.addColor { fill: #3fb950; }

text, tspan { white-space: pre; }
</style>

<!-- Background -->
<rect x="0" y="0" width="985" height="530" rx="15" fill="#161b22"/>

<!-- Content -->
<text fill="#c9d1d9">

<!-- HEADER -->
<tspan x="120" y="40">beardmikle@github</tspan>
<tspan x="300" y="40">────────────────────────────────────────────────────────────</tspan>

<!-- SYSTEM -->
<tspan x="120" y="70" class="key">OS:</tspan>
<tspan x="200" y="70" class="cc">................................</tspan>
<tspan x="620" y="70" class="value">macOS, iOS, Android, Linux, Windows</tspan>

<tspan x="120" y="95" class="key">Uptime:</tspan>
<tspan x="200" y="95" class="cc">..............................</tspan>
<tspan x="620" y="95" class="value">11 years</tspan>

<tspan x="120" y="120" class="key">Host:</tspan>
<tspan x="200" y="120" class="cc">................................</tspan>
<tspan x="620" y="120" class="value">Freelance Mobile Developer</tspan>

<tspan x="120" y="145" class="key">Kernel:</tspan>
<tspan x="200" y="145" class="cc">..............................</tspan>
<tspan x="620" y="145" class="value">Mobile &amp; Cross-Platform Development</tspan>

<tspan x="120" y="170" class="key">IDE:</tspan>
<tspan x="200" y="170" class="cc">................................</tspan>
<tspan x="620" y="170" class="value">VS Code, Xcode, Android SDK</tspan>

<!-- LANGUAGES -->
<tspan x="120" y="210" class="key">Languages.Programming:</tspan>
<tspan x="360" y="210" class="cc">......................</tspan>
<tspan x="620" y="210" class="value">SwiftUI, Kotlin, Dart, Flutter, iOS &amp; Android SDKs</tspan>

<tspan x="120" y="235" class="key">Languages.Real:</tspan>
<tspan x="300" y="235" class="cc">..............................</tspan>
<tspan x="620" y="235" class="value">English</tspan>

<!-- HOBBIES -->
<tspan x="120" y="275" class="key">Hobbies.Software:</tspan>
<tspan x="300" y="275" class="cc">..............................</tspan>
<tspan x="620" y="275" class="value">Mobile apps, UI/UX, AR, Open Source</tspan>

<!-- CONTACT -->
<tspan x="120" y="315">- Contact</tspan>
<tspan x="200" y="315">────────────────────────────────────────────────────────────</tspan>

<tspan x="120" y="340" class="key">Email:</tspan>
<tspan x="200" y="340" class="cc">................................</tspan>
<tspan x="620" y="340" class="value">beardmikle@gmail.com</tspan>

<tspan x="120" y="365" class="key">Website:</tspan>
<tspan x="200" y="365" class="cc">..............................</tspan>
<tspan x="620" y="365" class="value">https://beardmikle.dev</tspan>

<tspan x="120" y="390" class="key">LinkedIn:</tspan>
<tspan x="200" y="390" class="cc">..............................</tspan>
<tspan x="620" y="390" class="value">linkedin.com/in/beardmikle</tspan>

<tspan x="120" y="415" class="key">GitHub:</tspan>
<tspan x="200" y="415" class="cc">................................</tspan>
<tspan x="620" y="415" class="value">github.com/beardmikle</tspan>

<!-- STATS -->
<tspan x="120" y="455">- GitHub Stats</tspan>
<tspan x="260" y="455">────────────────────────────────────────────────────────────</tspan>

<tspan x="120" y="480" class="key">Focus:</tspan>
<tspan x="200" y="480" class="cc">................................</tspan>
<tspan x="620" y="480" class="value">Mobile Development &amp; Cross-Platform</tspan>

<tspan x="120" y="505" class="key">Status:</tspan>
<tspan x="200" y="505" class="cc">..............................</tspan>
<tspan x="620" y="505" class="addColor">Available for freelance</tspan>

</text>
</svg>
