<?xml version="1.0" encoding="UTF-8"?>
<svg xmlns="http://www.w3.org/2000/svg"
     viewBox="0 0 985 560"
     preserveAspectRatio="xMidYMid meet"
     font-family="ConsolasFallback,Consolas,monospace"
     font-size="16px">

<style>
@font-face {
  src: local('Consolas'), local('Consolas Bold');
  font-family: 'ConsolasFallback';
  font-display: swap;
  -webkit-size-adjust: 109%;
  size-adjust: 109%;
}

.key { fill: #ffa657; }
.value { fill: #a5d6ff; }
.cc { fill: #616e7f; }
.addColor { fill: #3fb950; }

text, tspan { white-space: pre; }
</style>

<rect x="0" y="0" width="985" height="560" rx="15" fill="#161b22"/>

<text fill="#c9d1d9">

<!-- HEADER -->
<tspan x="120" y="40">────────────────────────────── </tspan>
<tspan class="key">Mobile developer</tspan>
<tspan> ──────────────────────────────</tspan>
     
<!-- SYSTEM -->
<tspan x="30" y="75" class="cc">· </tspan><tspan x="50" y="75" class="key">OS:</tspan>
<tspan x="110" y="75" class="cc">........................................</tspan>
<tspan x="530" y="75" class="value">macOS, iOS, Android, Linux, Windows</tspan>

<tspan x="30" y="100" class="cc">· </tspan><tspan x="50" y="100" class="key">Uptime:</tspan>
<tspan x="110" y="100" class="cc">........................................</tspan>
<tspan x="530" y="100" class="value">11 years</tspan>

<tspan x="30" y="125" class="cc">· </tspan><tspan x="50" y="125" class="key">Host:</tspan>
<tspan x="110" y="125" class="cc">........................................</tspan>
<tspan x="530" y="125" class="value">Freelance Mobile Developer</tspan>

<tspan x="30" y="150" class="cc">· </tspan><tspan x="50" y="150" class="key">Kernel:</tspan>
<tspan x="110" y="150" class="cc">........................................</tspan>
<tspan x="530" y="150" class="value">Mobile &amp; Cross-Platform Development</tspan>

<tspan x="30" y="175" class="cc">· </tspan><tspan x="50" y="175" class="key">IDE:</tspan>
<tspan x="110" y="175" class="cc">........................................</tspan>
<tspan x="530" y="175" class="value">VS Code, Xcode, Android SDK</tspan>

<!-- LANGUAGES -->
<tspan x="30" y="215" class="cc">· </tspan><tspan x="50" y="215" class="key">Languages.Programming:</tspan>
<tspan x="270" y="215" class="cc">.......................</tspan>
<tspan x="530" y="215" class="value">SwiftUI, Kotlin, Dart, Flutter</tspan>

<tspan x="530" y="235" class="value">iOS &amp; Android SDKs</tspan>

<tspan x="30" y="260" class="cc">· </tspan><tspan x="50" y="260" class="key">Languages.Real:</tspan>
<tspan x="210" y="260" class="cc">.............................</tspan>
<tspan x="530" y="260" class="value">English</tspan>

<!-- HOBBIES -->
<tspan x="30" y="300" class="cc">· </tspan><tspan x="50" y="300" class="key">Hobbies.Software:</tspan>
<tspan x="210" y="300" class="cc">.............................</tspan>
<tspan x="530" y="300" class="value">Mobile apps, UI/UX, AR, Open Source</tspan>

<!-- CONTACT -->
<tspan x="120" y="340">- Contact </tspan>
<tspan>──────────────────────────────────────────────────────────────</tspan>

<tspan x="30" y="365" class="cc">· </tspan><tspan x="50" y="365" class="key">Email:</tspan>
<tspan x="110" y="365" class="cc">........................................</tspan>
<tspan x="530" y="365" class="value">beardmikle@gmail.com</tspan>

<tspan x="30" y="390" class="cc">· </tspan><tspan x="50" y="390" class="key">Website:</tspan>
<tspan x="110" y="390" class="cc">........................................</tspan>
<tspan x="530" y="390" class="value">https://beardmikle.dev</tspan>

<tspan x="30" y="415" class="cc">· </tspan><tspan x="50" y="415" class="key">LinkedIn:</tspan>
<tspan x="110" y="415" class="cc">........................................</tspan>
<tspan x="530" y="415" class="value">linkedin.com/in/beardmikle</tspan>

<tspan x="30" y="440" class="cc">· </tspan><tspan x="50" y="440" class="key">GitHub:</tspan>
<tspan x="110" y="440" class="cc">........................................</tspan>
<tspan x="530" y="440" class="value">github.com/beardmikle</tspan>

<!-- STATS -->
<tspan x="120" y="480">- Status </tspan>
<tspan>──────────────────────────────────────────────────────────────</tspan>


<tspan x="30" y="505" class="cc">· </tspan><tspan x="50" y="505" class="key">Focus:</tspan>
<tspan x="110" y="505" class="cc">........................................</tspan>
<tspan x="530" y="505" class="value">Mobile Development &amp; Cross-Platform</tspan>

<tspan x="30" y="530" class="cc">· </tspan><tspan x="50" y="530" class="key">Status:</tspan>
<tspan x="110" y="530" class="cc">........................................</tspan>
<tspan x="530" y="530" class="addColor">Available for freelance</tspan>

</text>
</svg>
